<svg width="295" height="307" viewBox="0 0 295 307" fill="none" xmlns="http://www.w3.org/2000/svg">
<path d="M214.24 9.43904C203.94 0.572011 189.733 -1.07103 176.889 2.32362C164.045 5.71827 151.793 13.8368 141.807 25.4376C131.82 37.0383 125.606 50.3711 124.159 63.5775C122.713 76.7839 126.459 90.5777 136.76 99.4447C147.06 108.312 161.266 109.955 174.111 106.56C186.955 103.166 199.207 95.0469 209.193 83.4462C219.179 71.8455 225.394 58.5127 226.84 45.3063C228.287 32.0999 224.541 18.3061 214.24 9.43904ZM209.193 83.4462C199.207 95.0469 192.992 108.38 191.545 121.586C190.099 134.793 193.855 148.595 204.146 157.453C214.446 166.32 228.652 167.963 241.497 164.569C254.341 161.174 266.593 153.056 276.579 141.455C286.565 129.854 292.78 116.521 294.227 103.315C295.673 90.1085 291.927 76.3147 281.626 67.4477C271.326 58.5806 257.12 56.9376 244.275 60.3322C231.431 63.7269 219.179 71.8455 209.193 83.4462ZM197.022 29.4403C200.026 32.0258 201.994 36.4366 201.246 43.419C200.468 50.3583 196.594 59.1418 189.94 66.8723C183.285 74.6028 175.167 79.7501 168.429 81.5414C161.636 83.3196 156.981 82.029 153.978 79.4435C150.974 76.858 149.005 72.4471 149.753 65.4648C150.531 58.5255 154.405 49.742 161.06 42.0115C167.715 34.281 175.833 29.1337 182.571 27.3423C189.364 25.5642 194.019 26.8548 197.022 29.4403ZM264.408 87.4489C267.412 90.0345 269.38 94.4453 268.632 101.428C267.855 108.367 263.981 117.15 257.326 124.881C250.671 132.611 242.553 137.759 235.815 139.55C229.022 141.328 224.367 140.038 221.364 137.452C218.36 134.867 216.392 130.456 217.14 123.473C217.917 116.534 221.791 107.751 228.446 100.02C235.101 92.2896 243.219 87.1423 249.957 85.351C256.75 83.5728 261.405 84.8634 264.408 87.4489ZM105.845 38.0087C95.5441 29.1417 81.3379 27.4987 68.4935 30.8933C55.6492 34.288 43.3976 42.4066 33.4113 54.0073C23.4249 65.608 17.2103 78.9408 15.7638 92.1472C14.3173 105.354 18.0637 119.147 28.3641 128.014C38.6646 136.881 52.8708 138.525 65.7151 135.13C78.5595 131.735 90.811 123.617 100.797 112.016C110.784 100.415 116.998 87.0824 118.445 73.876C119.891 60.6696 116.145 46.8758 105.845 38.0087ZM269.497 178.887C259.196 170.02 244.99 168.377 232.146 171.771C219.301 175.166 207.05 183.285 197.063 194.885C187.077 206.486 180.862 219.819 179.416 233.025C177.969 246.232 181.716 260.026 192.016 268.893C202.317 277.76 216.523 279.403 229.367 276.008C242.212 272.613 254.463 264.495 264.449 252.894C274.436 241.293 280.65 227.96 282.097 214.754C283.543 201.548 279.797 187.754 269.497 178.887ZM88.6267 58.01C91.6302 60.5955 93.5987 65.0064 92.8508 71.9887C92.0729 78.928 88.1989 87.7115 81.5442 95.442C74.8895 103.173 66.7712 108.32 60.0335 110.111C53.24 111.889 48.5855 110.599 45.582 108.013C42.5785 105.428 40.6099 101.017 41.3579 94.0345C42.1272 87.1052 46.0097 78.3117 52.6644 70.5812C59.3192 62.8507 67.4374 57.7034 74.1752 55.9121C80.9686 54.1339 85.6232 55.4245 88.6267 58.01ZM252.279 198.888C255.282 201.474 257.251 205.884 256.503 212.867C255.725 219.806 251.851 228.59 245.196 236.32C238.542 244.051 230.423 249.198 223.685 250.989C216.892 252.767 212.238 251.477 209.234 248.891C206.231 246.306 204.262 241.895 205.01 234.913C205.788 227.973 209.662 219.19 216.316 211.459C222.971 203.729 231.089 198.581 237.827 196.79C244.621 195.012 249.275 196.303 252.279 198.888ZM153.235 148.45C140.403 137.404 124.003 138.348 113.061 142.161C102.148 145.999 94.0114 149.999 89.178 150.435C86.3535 150.737 73.9388 146.37 59.8381 143.164C52.7834 141.566 44.9499 140.795 36.3196 142.507C27.6605 144.193 18.6273 149.041 11.6282 157.171C-4.90094 176.372 -3.29306 205.267 15.19 221.178C23.5266 228.354 34.6396 233.045 45.3113 237.879C56.0733 242.686 67.1454 248.457 67.1454 248.457C67.1454 248.457 74.4985 258.547 80.8507 268.438C87.2276 278.28 93.5195 288.572 101.856 295.749C120.339 311.659 149.151 308.952 165.68 289.751C172.516 281.81 175.945 272.122 176.226 263.483C176.551 254.83 174.351 247.417 171.829 240.632C166.765 227.045 160.917 214.698 160.79 212.082C160.52 207.723 163.543 198.955 165.692 187.502C167.876 176.028 166.134 159.555 153.235 148.45ZM136.017 168.452C142.37 173.921 141.696 176.126 140.285 183.548C138.911 190.984 133.828 201.251 134.558 214.538C135.44 229.575 143.922 240.01 147.75 250.34C149.669 255.509 150.61 260.062 150.495 263.585C150.378 267.088 149.492 269.617 146.445 273.157C139.213 281.557 127.178 282.688 119.091 275.727C116.3 273.324 109.202 263.384 102.979 253.674C96.7306 243.994 92.2358 235.198 84.3805 228.435C76.5252 221.673 67.1578 218.537 56.6562 213.797C46.1288 209.088 35.2436 203.548 32.4519 201.145C24.3656 194.184 23.694 182.114 30.9255 173.713C34.3949 169.683 36.9855 168.309 40.3398 167.645C43.6854 166.99 48.3615 167.516 53.5697 168.708C64.0033 171.074 75.2678 178.159 90.6768 176.711C104.078 175.415 113.668 168.557 120.746 166.118C127.775 163.638 129.611 162.868 136.042 168.403L136.017 168.452Z" fill="#00B2D1" fill-opacity="0.5"/>
<path d="M67.1454 248.457C70.3782 246.101 70.3783 246.101 70.3784 246.101L70.3788 246.102L70.38 246.104L70.3846 246.11L70.4015 246.133L70.4665 246.222C70.5234 246.301 70.607 246.416 70.7153 246.566C70.9318 246.865 71.2472 247.303 71.6451 247.858C72.4406 248.968 73.5668 250.551 74.8925 252.444C77.5392 256.223 80.9966 261.264 84.2113 266.269C84.7354 267.078 85.2557 267.884 85.7736 268.687C91.6925 277.86 97.2977 286.547 104.466 292.717C121.167 307.094 147.466 304.778 162.649 287.141C168.885 279.896 171.977 271.084 172.228 263.353L172.228 263.343L172.228 263.333C172.524 255.467 170.538 248.642 168.08 242.029L67.1454 248.457ZM67.1454 248.457L70.3782 246.101L69.8258 245.343L68.9941 244.909L67.1454 248.457ZM67.1454 248.457C68.9941 244.909 68.994 244.909 68.9938 244.909L68.9932 244.909L68.9913 244.908L68.9844 244.904L68.9588 244.891L68.8606 244.84C68.7746 244.795 68.6481 244.73 68.4838 244.645C68.1552 244.475 67.6754 244.229 67.0668 243.918C65.8496 243.296 64.1158 242.418 62.0438 241.388C57.9079 239.334 52.4001 236.665 46.9532 234.232C46.0877 233.84 45.2248 233.451 44.3659 233.064C34.4114 228.577 24.9749 224.323 17.7996 218.146C1.09868 203.769 -0.522861 177.418 14.6597 159.781C21.0662 152.339 29.2978 147.95 37.0845 146.433L37.0978 146.43M67.1454 248.457L37.0978 146.43M37.0978 146.43C45.0189 144.859 52.2604 145.549 58.9512 147.065C65.2061 148.487 71.1263 150.142 76.0808 151.527C76.6198 151.677 77.1474 151.825 77.6627 151.968C80.2607 152.692 82.5973 153.333 84.4733 153.772C85.4119 153.992 86.2985 154.176 87.0844 154.296C87.7864 154.402 88.691 154.504 89.5637 154.416C92.6248 154.135 96.3797 152.801 100.271 151.309C101.478 150.846 102.728 150.356 104.026 149.846C107.157 148.617 110.575 147.275 114.384 145.936C124.564 142.39 139.277 141.713 150.625 151.482C162.071 161.335 163.785 176.129 161.762 186.754L161.76 186.764M37.0978 146.43L161.76 186.764M161.76 186.764C160.909 191.302 159.922 195.388 159.042 199.032C158.835 199.888 158.634 200.72 158.442 201.527C157.5 205.493 156.623 209.408 156.796 212.307M161.76 186.764L156.796 212.307M54.4551 164.808C49.155 163.594 43.7865 162.895 39.5718 163.719L39.5625 163.721C37.5262 164.124 35.5642 164.78 33.5681 166.017C31.6117 167.23 29.795 168.895 27.894 171.104C19.3159 181.069 19.9739 195.681 29.8423 204.176C31.6574 205.739 35.5201 207.932 39.8121 210.157C44.2767 212.472 49.6978 215.066 55.0161 217.446C57.3679 218.507 59.6053 219.469 61.741 220.388C69.5821 223.76 76.0508 226.543 81.7709 231.467C87.491 236.391 91.2045 242.374 95.7058 249.626C96.9319 251.602 98.2164 253.671 99.6159 255.839C102.76 260.744 106.131 265.719 109.084 269.789C111.923 273.703 114.667 277.196 116.482 278.759C126.35 287.254 140.898 285.731 149.476 275.766C151.177 273.791 152.441 271.907 153.272 269.868C154.116 267.8 154.423 265.797 154.492 263.718L154.492 263.716L63.4914 171.831C71.2966 174.615 79.9899 177.715 90.6768 176.711M54.4551 164.808C54.4576 164.808 54.4601 164.809 54.4626 164.809L53.5697 168.708L54.4541 164.807C54.4544 164.807 54.4547 164.808 54.4551 164.808ZM54.4551 164.808C57.3058 165.454 60.1523 166.408 62.9322 167.388C63.5859 167.618 64.2346 167.849 64.8816 168.08C67.0462 168.852 69.1924 169.617 71.4485 170.321C77.2259 172.123 83.324 173.383 90.2969 172.729M90.2969 172.729C90.2952 172.729 90.2935 172.729 90.2917 172.729L90.6768 176.711M90.2969 172.729C96.4071 172.137 101.716 170.274 106.472 168.182C108.361 167.351 110.116 166.505 111.83 165.68C112.296 165.455 112.759 165.232 113.22 165.011C115.315 164.01 117.423 163.034 119.428 162.341M90.2969 172.729C90.2988 172.729 90.3007 172.729 90.3026 172.728L90.6768 176.711M90.6768 176.711L119.428 162.341M119.428 162.341C119.655 162.261 119.881 162.181 120.108 162.1C123.037 161.058 125.993 160.007 128.971 160.27C132.465 160.579 135.365 162.543 138.651 165.372L141.039 167.428L140.959 167.585C143.022 169.693 144.435 171.835 144.979 174.454C145.328 176.133 145.266 177.758 145.077 179.31C144.919 180.616 144.639 182.074 144.349 183.592C144.305 183.821 144.261 184.051 144.217 184.282C143.83 186.372 143.198 188.589 142.542 190.798C142.409 191.247 142.274 191.698 142.138 192.151C141.588 193.986 141.026 195.861 140.502 197.863C139.207 202.804 138.219 208.243 138.551 214.31C138.952 221.109 141.066 226.949 143.671 232.506C144.636 234.565 145.637 236.522 146.647 238.498C147.02 239.227 147.394 239.958 147.768 240.698C149.126 243.386 150.46 246.142 151.5 248.948C151.501 248.948 151.501 248.949 151.501 248.95L147.75 250.34L119.428 162.341ZM156.796 212.307C156.841 213.134 157.066 213.99 157.258 214.638C157.476 215.376 157.77 216.221 158.107 217.128C158.781 218.943 159.708 221.22 160.761 223.769C161.041 224.448 161.331 225.148 161.629 225.868C163.592 230.608 165.909 236.202 168.08 242.028L156.796 212.307ZM205.221 43.8646L205.222 43.8548L205.224 43.8451C206.077 35.8812 203.857 30.0457 199.632 26.4088C195.407 22.772 189.306 21.4446 181.558 23.4727L181.55 23.4747L181.543 23.4766C173.874 25.5155 165.097 31.1912 158.028 39.4019C150.959 47.6143 146.663 57.1272 145.778 65.0192L145.777 65.0289L145.776 65.0387C144.923 73.0026 147.143 78.8381 151.368 82.475C155.593 86.1118 161.693 87.4392 169.442 85.4111L169.449 85.4091L169.457 85.4072C177.126 83.3683 185.903 77.6926 192.971 69.4819C200.041 61.2695 204.337 51.7565 205.221 43.8646ZM272.607 101.873L272.609 101.863L272.61 101.854C273.463 93.8898 271.243 88.0543 267.018 84.4175C262.793 80.7806 256.692 79.4532 248.944 81.4813L248.937 81.4833L248.929 81.4853C241.26 83.5241 232.483 89.1998 225.415 97.4105C218.345 105.623 214.049 115.136 213.164 123.028L213.163 123.038L213.162 123.047C212.309 131.011 214.529 136.847 218.754 140.484C222.979 144.12 229.08 145.448 236.828 143.42L236.835 143.418L236.843 143.416C244.512 141.377 253.289 135.701 260.357 127.491C267.427 119.278 271.723 109.765 272.607 101.873ZM96.8259 72.4343L96.827 72.4246L96.828 72.4148C97.6811 64.4509 95.461 58.6154 91.2363 54.9785C87.0115 51.3417 80.9108 50.0143 73.1623 52.0424L73.1549 52.0444L73.1474 52.0463C65.4787 54.0852 56.701 59.7609 49.633 67.9716C42.5649 76.1822 38.2579 85.7064 37.3823 93.5931L37.3815 93.6008L37.3807 93.6084C36.5275 101.572 38.7476 107.408 42.9724 111.045C47.1971 114.681 53.2979 116.009 61.0464 113.981L61.0538 113.979L61.0612 113.977C68.73 111.938 77.5077 106.262 84.5757 98.0516C91.6453 89.8392 95.9412 80.3263 96.8259 72.4343ZM260.478 213.312L260.479 213.303L260.48 213.293C261.333 205.329 259.113 199.493 254.888 195.857C250.664 192.22 244.563 190.892 236.814 192.921L236.807 192.922L236.799 192.924C229.131 194.963 220.353 200.639 213.285 208.85C206.215 217.062 201.919 226.575 201.035 234.467L201.034 234.477L201.033 234.487C200.18 242.45 202.4 248.286 206.624 251.923C210.849 255.56 216.95 256.887 224.698 254.859L224.706 254.857L224.713 254.855C232.382 252.816 241.16 247.14 248.228 238.93C255.297 230.717 259.593 221.204 260.478 213.312ZM177.911 6.19084C189.837 3.03893 202.579 4.67848 211.63 12.4705C220.684 20.2641 224.207 32.6116 222.864 44.8708C221.52 57.1447 215.712 69.7422 206.161 80.8366C196.611 91.9304 185.027 99.5378 173.089 102.693C161.163 105.845 148.421 104.205 139.369 96.4133C130.316 88.6197 126.793 76.2722 128.136 64.013C129.48 51.7391 135.288 39.1416 144.838 28.0472C154.388 16.9534 165.973 9.34597 177.911 6.19084ZM195.522 122.022C196.866 109.748 202.674 97.1502 212.224 86.0558C221.774 74.962 233.359 67.3546 245.297 64.1995C257.223 61.0476 269.965 62.6871 279.017 70.4792C288.07 78.2727 291.593 90.6203 290.25 102.879C288.906 115.153 283.098 127.751 273.548 138.845C263.998 149.939 252.413 157.546 240.475 160.702C228.549 163.853 215.807 162.214 206.755 154.422C197.711 146.636 194.179 134.28 195.522 122.022ZM69.5156 34.7605C81.4415 31.6086 94.1833 33.2482 103.235 41.0402C112.288 48.8338 115.811 61.1813 114.469 73.4405C113.124 85.7144 107.316 98.3119 97.7659 109.406C88.2159 120.5 76.6312 128.108 64.6931 131.263C52.7672 134.415 40.0254 132.775 30.9737 124.983C21.9203 117.189 18.3973 104.842 19.74 92.5827C21.0844 80.3088 26.8923 67.7113 36.4428 56.6169C45.9928 45.5231 57.5775 37.9157 69.5156 34.7605ZM233.168 175.639C245.094 172.487 257.835 174.126 266.887 181.918C275.94 189.712 279.463 202.059 278.121 214.319C276.776 226.593 270.968 239.19 261.418 250.284C251.868 261.378 240.283 268.986 228.345 272.141C216.419 275.293 203.677 273.653 194.626 265.861C185.572 258.068 182.049 245.72 183.392 233.461C184.736 221.187 190.544 208.589 200.095 197.495C209.645 186.401 221.23 178.794 233.168 175.639Z" stroke="#752995" stroke-opacity="0.3" stroke-width="8"/>
</svg>
